<svg width="100" height="100" viewBox="0 0 24 24" xmlns="http://www.w3.org/2000/svg">
  <path d="M14.017 21L14.017 18.009L14.017 16.064L14.017 3.605C14.017 2.164 12.835 1.002 11.378 1.002L12.618 1.002C14.076 1.002 15.258 2.164 15.258 3.605L15.258 16.064L15.258 18.009L15.258 21L14.017 21ZM4.983 3C4.983 1.558 6.164 0.395 7.622 0.395L6.381 0.395C4.924 0.395 3.742 1.558 3.742 3L3.742 15.459L3.742 17.404L3.742 20.395L4.983 20.395L4.983 17.404L4.983 15.459L4.983 3Z" fill="#E50914"/>
  <path d="M9.5 3C9.5 1.558 8.318 0.395 6.86 0.395L7.622 0.395C9.079 0.395 10.261 1.558 10.261 3L10.261 15.459L10.261 17.404L10.261 20.395L9.5 20.395L9.5 17.404L9.5 15.459L9.5 3Z" fill="#B00612"/> <polygon points="7.622 0.395 6.381 0.395 14.017 21 15.258 21" fill="#E50914"/>
</svg>